<svg xmlns="http://www.w3.org/2000/svg" width="130" height="72" viewBox="0 0 130 72">
    <g fill="none" fill-rule="evenodd">
        <g fill="#D59EA5">
            <path d="M14.444 35.552l9.402.017-.018 9.627 14.34.026.019-9.627 8.856.016.018-9.663-32.598-.06zM82.94 35.552l9.402.018-.019 9.626 14.34.026.019-9.626 8.854.016.02-9.664-32.598-.06zM71.232 46.27l14.425.026-14.621-19.845-13.085-.025-14.695 19.792 14.424.026 6.772-10.345zM36.948 12.02l2.129.004-.002.975c.318-.397.642-.683.966-.852.327-.168.724-.253 1.191-.253.633.001 1.129.189 1.486.57.354.374.533.96.531 1.749l-.007 3.796-2.297-.005.006-3.285c0-.377-.067-.64-.205-.797-.138-.156-.332-.237-.582-.237a.838.838 0 0 0-.677.315c-.174.212-.258.587-.258 1.13L39.224 18l-2.287-.004.01-5.976zM48.68 15.183c-.314.112-.644.209-.984.298-.465.122-.759.242-.883.364a.564.564 0 0 0-.19.419.57.57 0 0 0 .186.444c.123.113.31.17.55.17.256.001.494-.059.713-.181.22-.122.374-.276.467-.453.092-.178.14-.41.14-.695l.001-.366zm-1.98-1.207l-2.186-.236c.084-.382.204-.684.359-.903.156-.219.38-.41.673-.569.21-.117.497-.207.864-.27a6.98 6.98 0 0 1 1.189-.091c.687 0 1.237.038 1.651.118.418.076.762.237 1.04.48.193.17.347.413.46.721.113.31.167.604.166.885l-.005 2.64c0 .28.016.5.051.66.04.159.114.363.234.612l-2.147-.004a2.385 2.385 0 0 1-.168-.349 3.026 3.026 0 0 1-.079-.383c-.3.288-.595.495-.891.617-.404.164-.875.247-1.411.246-.71-.002-1.251-.168-1.62-.497a1.582 1.582 0 0 1-.552-1.224c.001-.455.135-.826.405-1.119.265-.291.755-.509 1.471-.652.857-.169 1.41-.29 1.667-.357.254-.068.525-.159.81-.272.002-.28-.056-.477-.173-.59-.117-.113-.32-.17-.61-.17-.375 0-.657.056-.843.176-.148.095-.267.271-.356.531zM52.374 12.05l2.287.003-.012 5.977-2.287-.004.012-5.977zm.004-2.272l2.287.004-.004 1.558-2.286-.005.003-1.557zM56.204 9.785l2.29.004-.016 8.248-2.29-.005zM63.373 16.388l2.27-.212c.092.27.223.464.392.58.165.119.39.178.673.178.308 0 .545-.065.712-.197a.435.435 0 0 0 .198-.362c0-.166-.085-.295-.256-.384-.124-.066-.453-.144-.986-.239-.792-.14-1.341-.27-1.652-.387a1.745 1.745 0 0 1-.78-.601 1.555 1.555 0 0 1-.314-.964c.001-.392.116-.729.344-1.016.23-.282.541-.495.947-.636.398-.138.936-.207 1.61-.206.711.001 1.238.055 1.576.166.336.11.62.277.848.508.227.227.411.539.562.931l-2.17.207a.726.726 0 0 0-.28-.421 1.142 1.142 0 0 0-.651-.184c-.258 0-.445.047-.564.138a.414.414 0 0 0-.177.333c-.001.15.074.257.224.333.15.074.477.142.977.205.758.089 1.324.208 1.695.365.37.154.653.372.848.657.2.283.295.597.295.939-.001.347-.105.68-.314 1.007-.21.325-.536.584-.985.775-.448.192-1.054.288-1.828.286-1.09-.002-1.865-.16-2.328-.47-.46-.311-.757-.756-.886-1.329M70.814 9.81l2.286.004-.007 3.039c.312-.32.622-.55.931-.687.305-.141.668-.208 1.087-.207.62 0 1.114.19 1.469.568.357.38.536.963.534 1.75l-.007 3.795-2.298-.005.006-3.285c.001-.375-.067-.64-.204-.796-.14-.156-.334-.237-.585-.237a.834.834 0 0 0-.676.315c-.172.212-.26.587-.26 1.13l-.007 2.87-2.284-.004.015-8.25zM80.488 15.104c-.001.533.107.925.32 1.18.214.255.487.382.81.383.328 0 .601-.125.812-.373.212-.252.32-.653.32-1.21.002-.518-.104-.903-.32-1.158a.99.99 0 0 0-.787-.38c-.336 0-.61.127-.827.383-.217.257-.327.648-.328 1.175m-2.292-.002c.001-.912.31-1.66.925-2.25.615-.59 1.444-.883 2.49-.882 1.195.003 2.093.351 2.703 1.046.49.56.735 1.25.734 2.065-.002.92-.31 1.673-.92 2.26-.607.586-1.451.876-2.524.875-.96-.003-1.734-.247-2.321-.734-.729-.605-1.09-1.4-1.087-2.38M88.451 15.121c0 .474.095.826.296 1.055.196.23.448.343.752.344a.833.833 0 0 0 .668-.324c.181-.222.272-.595.273-1.12 0-.484-.095-.841-.28-1.067-.188-.228-.416-.341-.686-.341a.91.91 0 0 0-.73.342c-.195.227-.291.6-.293 1.111zm-2.3 5.243l.014-8.25 2.14.003-.001.885c.296-.372.567-.624.813-.753a2.304 2.304 0 0 1 1.109-.262c.797.001 1.412.306 1.847.918.435.615.652 1.37.65 2.272-.002.995-.24 1.75-.715 2.275-.48.522-1.08.781-1.807.78-.35 0-.672-.061-.96-.182a2.314 2.314 0 0 1-.778-.535l-.005 2.853-2.308-.004zM43.823 53.273l7.3.014-.003 1.852-2.45-.005-.01 5.64-2.4-.004.01-5.64-2.45-.004zM55.346 58.212c-.299.101-.606.19-.93.27-.44.11-.714.221-.832.33a.515.515 0 0 0-.18.382.51.51 0 0 0 .174.403c.12.103.294.155.525.156.238 0 .464-.054.67-.167.205-.112.353-.25.44-.411.089-.161.132-.372.132-.63l.001-.333zm-1.87-1.098l-2.064-.212c.08-.346.195-.622.339-.82.149-.199.36-.373.635-.518.198-.105.47-.187.818-.243.348-.057.72-.086 1.124-.086.645.001 1.166.036 1.558.107.393.07.718.217.981.44.184.151.327.371.431.65.108.282.159.552.158.806l-.004 2.4c0 .253.018.455.05.6.033.144.105.33.218.553l-2.026-.004a1.815 1.815 0 0 1-.156-.32 2.132 2.132 0 0 1-.074-.343c-.282.262-.567.449-.844.56a3.67 3.67 0 0 1-1.331.223c-.673 0-1.182-.154-1.528-.453-.347-.301-.524-.67-.523-1.109 0-.414.129-.752.38-1.018.251-.264.714-.462 1.39-.591.812-.155 1.335-.261 1.575-.327a7 7 0 0 0 .765-.246c0-.254-.056-.432-.162-.536-.112-.103-.303-.156-.579-.157-.355 0-.617.057-.796.164-.137.087-.248.247-.335.48zM58.835 55.365l2.156.004-.01 5.428-2.157-.004.01-5.428zm.004-2.064l2.157.004-.004 1.416-2.157-.004.004-1.416zM61.74 55.37l2.088.004.894 3.421 1.149-3.417 1.95.003 1.183 3.429.916-3.425 2.075.004-2.085 5.424-1.921-.003-1.134-3.266-1.11 3.262-1.928-.003zM76.33 58.25c-.297.101-.607.19-.928.27-.439.11-.716.222-.834.33a.516.516 0 0 0-.004.785c.118.103.293.156.523.156.24 0 .463-.054.672-.166.207-.113.351-.25.439-.412.087-.161.131-.372.131-.63l.001-.334zm-1.868-1.098L72.4 56.94c.076-.348.19-.623.337-.82.147-.2.359-.374.635-.52.198-.104.471-.186.817-.243a6.928 6.928 0 0 1 1.124-.085c.646.002 1.167.036 1.56.108.391.069.719.216.98.44.182.15.325.37.433.649.106.282.157.553.156.806l-.004 2.4c0 .254.015.456.05.6.03.144.104.33.219.553l-2.025-.003a2.13 2.13 0 0 1-.159-.32 2.113 2.113 0 0 1-.074-.344c-.282.262-.564.45-.845.56-.38.149-.823.225-1.33.223-.671 0-1.18-.154-1.529-.454-.348-.3-.52-.67-.52-1.108.001-.413.128-.752.38-1.017.25-.264.713-.463 1.39-.591.81-.156 1.334-.261 1.574-.327.24-.062.495-.143.764-.246 0-.255-.055-.434-.163-.536-.11-.104-.3-.157-.578-.157-.352 0-.617.056-.797.163-.136.088-.247.247-.332.48zM79.741 55.403l2.008.003-.002.886c.301-.362.607-.62.912-.772.31-.155.685-.231 1.126-.231.598.001 1.064.17 1.403.517.336.341.503.87.502 1.586l-.007 3.45-2.167-.004.005-2.983c.001-.343-.066-.583-.197-.725-.128-.142-.312-.214-.55-.214a.801.801 0 0 0-.637.285c-.161.19-.245.535-.247 1.029l-.005 2.605-2.155-.004.011-5.428z"/>
        </g>
        <path d="M0 0h130v72H0z"/>
    </g>
</svg>
